<svg xmlns="http://www.w3.org/2000/svg" width="1690" height="822" viewBox="0 0 1690 822">
<g fill-rule="evenodd">
<g fill="#030304">
<path d="M 1406 523 L 1406 526 L 1410 527 L 1410 523 Z"/>
<path d="M 1363 520 L 1364 528 L 1363 537 L 1361 540 L 1367 540 L 1367 529 L 1377 540 L 1380 540 L 1380 521 L 1375 521 L 1377 525 L 1376 531 L 1367 520 Z"/>
<path d="M 1393 518 L 1385 522 L 1384 532 L 1388 538 L 1397 539 L 1403 535 L 1403 532 L 1400 529 L 1398 518 Z M 1389 531 L 1394 529 L 1401 530 L 1401 532 L 1397 536 L 1392 535 Z M 1388 527 L 1389 523 L 1392 521 L 1396 521 L 1399 524 L 1396 527 Z"/>
<path d="M 1353 518 L 1353 520 L 1355 521 L 1352 535 L 1349 537 L 1356 539 L 1355 535 L 1357 525 L 1360 520 Z"/>
<path d="M 1332 510 L 1329 516 L 1320 525 L 1324 528 L 1324 526 L 1330 519 L 1331 531 L 1333 531 L 1341 522 L 1342 526 L 1340 534 L 1345 536 L 1344 533 L 1347 516 L 1342 514 L 1337 521 L 1336 511 Z"/>
<path d="M 1426 504 L 1410 513 L 1413 516 L 1420 531 L 1425 528 L 1420 520 L 1424 517 L 1427 517 L 1427 515 L 1425 513 L 1419 517 L 1416 512 L 1424 508 Z"/>
<path d="M 1314 500 L 1307 505 L 1306 514 L 1310 519 L 1318 520 L 1324 516 L 1326 507 L 1322 501 Z M 1321 504 L 1321 511 L 1313 517 L 1309 513 L 1311 508 L 1317 503 Z"/>
<path d="M 1436 495 L 1430 500 L 1427 508 L 1429 513 L 1434 517 L 1442 517 L 1447 513 L 1449 507 L 1441 500 L 1433 509 L 1431 506 L 1432 502 L 1436 499 L 1439 499 Z M 1445 504 L 1446 508 L 1440 514 L 1435 511 L 1442 504 Z"/>
<path d="M 1439 492 L 1452 502 L 1453 505 L 1463 495 L 1461 489 L 1460 495 L 1456 499 L 1449 494 L 1443 487 Z"/>
<path d="M 1304 482 L 1302 482 L 1299 486 L 1290 492 L 1287 492 L 1288 495 L 1291 497 L 1297 491 L 1300 491 L 1297 506 L 1299 508 L 1313 495 L 1310 491 L 1304 498 L 1303 497 L 1305 489 Z"/>
<path d="M 1292 478 L 1291 482 L 1295 483 L 1296 480 Z"/>
<path d="M 1450 475 L 1448 481 L 1452 481 L 1458 484 L 1465 490 L 1469 484 L 1465 484 L 1454 478 L 1452 475 Z"/>
<path d="M 1295 466 L 1290 470 L 1277 474 L 1279 479 L 1281 480 L 1282 477 L 1297 472 Z"/>
<path d="M 1458 457 L 1455 463 L 1455 472 L 1459 476 L 1469 477 L 1474 472 L 1476 463 L 1471 460 L 1473 465 L 1472 469 L 1470 471 L 1464 472 L 1457 465 L 1458 462 L 1463 458 Z"/>
<path d="M 1289 450 L 1280 449 L 1273 454 L 1273 464 L 1277 469 L 1282 468 L 1284 465 L 1287 465 L 1287 463 L 1285 462 L 1283 454 L 1284 453 L 1288 454 L 1291 458 L 1289 464 L 1294 463 L 1293 456 Z M 1280 454 L 1283 462 L 1282 467 L 1279 466 L 1275 461 Z"/>
<path d="M 1459 448 L 1459 454 L 1463 453 L 1475 455 L 1478 457 L 1479 451 L 1476 452 Z"/>
<path d="M 1270 425 L 1271 441 L 1279 446 L 1286 444 L 1290 436 L 1290 426 L 1273 427 Z M 1272 432 L 1286 431 L 1287 436 L 1284 440 L 1278 441 L 1273 437 Z"/>
<path d="M 1459 424 L 1459 446 L 1464 443 L 1464 438 L 1478 437 L 1480 439 L 1480 433 L 1463 434 L 1462 432 L 1464 426 Z"/>
<path d="M 1279 418 L 1278 422 L 1282 423 L 1283 419 Z"/>
<path d="M 1475 404 L 1469 404 L 1475 410 L 1475 413 L 1471 417 L 1468 414 L 1467 406 L 1463 407 L 1467 417 L 1465 419 L 1461 417 L 1459 414 L 1461 408 L 1456 409 L 1457 415 L 1462 422 L 1469 423 L 1477 418 L 1478 411 Z"/>
<path d="M 1278 393 L 1277 399 L 1284 400 L 1287 403 L 1274 408 L 1272 411 L 1291 416 L 1292 412 L 1286 412 L 1282 410 L 1295 405 L 1297 401 L 1284 397 Z"/>
<path d="M 1282 385 L 1280 391 L 1283 390 L 1298 399 L 1300 393 L 1297 393 L 1287 388 L 1284 384 Z"/>
<path d="M 1463 379 L 1463 388 L 1457 386 L 1452 388 L 1450 391 L 1450 396 L 1455 406 L 1468 398 L 1473 397 L 1471 393 L 1466 393 L 1467 384 Z M 1461 391 L 1463 396 L 1455 400 L 1453 398 L 1453 393 L 1457 390 Z"/>
<path d="M 1367 270 L 1367 279 L 1357 280 L 1357 295 L 1344 303 L 1332 314 L 1331 335 L 1313 336 L 1310 347 L 1309 365 L 1315 401 L 1324 429 L 1333 451 L 1350 485 L 1362 504 L 1371 514 L 1377 515 L 1386 507 L 1399 487 L 1416 454 L 1426 430 L 1434 406 L 1439 385 L 1441 371 L 1441 351 L 1437 336 L 1419 335 L 1419 316 L 1415 310 L 1393 295 L 1393 280 L 1384 280 L 1383 270 Z M 1406 454 L 1407 455 L 1392 483 L 1391 455 Z M 1344 454 L 1359 455 L 1358 482 L 1351 471 L 1343 455 Z M 1391 423 L 1392 407 L 1425 408 L 1422 419 L 1419 424 Z M 1367 407 L 1384 408 L 1384 431 L 1417 432 L 1410 447 L 1384 447 L 1384 496 L 1375 507 L 1366 496 L 1366 447 L 1341 447 L 1334 434 L 1335 431 L 1366 431 Z M 1325 408 L 1358 407 L 1359 423 L 1331 424 Z M 1379 395 L 1380 394 L 1384 399 L 1380 400 Z M 1370 394 L 1371 399 L 1367 400 L 1366 399 Z M 1388 391 L 1389 390 L 1407 399 L 1394 400 Z M 1362 391 L 1356 400 L 1343 399 L 1361 390 Z M 1396 385 L 1403 384 L 1428 388 L 1430 390 L 1429 396 L 1426 399 Z M 1354 385 L 1325 399 L 1322 398 L 1320 390 L 1322 388 L 1347 384 Z M 1317 355 L 1351 354 L 1353 356 L 1349 359 L 1348 365 L 1354 369 L 1366 373 L 1373 366 L 1373 360 L 1371 356 L 1373 354 L 1376 354 L 1378 356 L 1377 367 L 1385 373 L 1401 366 L 1401 359 L 1397 356 L 1399 354 L 1433 354 L 1433 376 L 1431 381 L 1425 381 L 1386 375 L 1387 382 L 1385 386 L 1380 390 L 1373 391 L 1367 388 L 1364 384 L 1364 375 L 1319 381 L 1317 373 Z M 1318 345 L 1320 343 L 1432 344 L 1431 347 L 1395 348 L 1390 352 L 1391 362 L 1388 364 L 1385 364 L 1383 362 L 1385 354 L 1383 350 L 1380 348 L 1374 347 L 1365 351 L 1363 353 L 1363 359 L 1365 359 L 1367 362 L 1365 364 L 1362 364 L 1359 362 L 1360 352 L 1355 348 L 1319 347 Z M 1397 316 L 1408 315 L 1411 317 L 1411 336 L 1395 335 L 1395 319 Z M 1342 315 L 1352 315 L 1355 318 L 1354 336 L 1339 335 L 1339 318 Z M 1367 310 L 1377 308 L 1383 310 L 1387 314 L 1387 336 L 1362 335 L 1362 316 Z M 1383 301 L 1384 300 L 1390 302 L 1398 307 L 1393 309 Z M 1367 301 L 1357 309 L 1352 307 L 1360 302 L 1366 300 Z M 1374 276 L 1377 277 L 1377 286 L 1388 287 L 1387 291 L 1377 291 L 1376 301 L 1373 300 L 1373 291 L 1363 290 L 1364 286 L 1373 286 Z"/>
</g>
<g fill="#B52519">
<path d="M 1137 405 L 1136 410 L 1140 410 L 1143 414 L 1143 446 L 1136 450 L 1136 454 L 1161 454 L 1161 450 L 1155 447 L 1155 404 Z"/>
<path d="M 1094 408 L 1088 415 L 1084 426 L 1084 435 L 1088 446 L 1093 451 L 1101 455 L 1117 455 L 1125 452 L 1126 441 L 1119 445 L 1106 446 L 1099 441 L 1095 431 L 1097 426 L 1126 426 L 1127 415 L 1124 409 L 1116 404 L 1102 404 Z M 1116 415 L 1114 420 L 1098 420 L 1099 415 L 1108 409 L 1112 410 Z"/>
<path d="M 1010 405 L 1010 410 L 1015 411 L 1017 415 L 1017 445 L 1015 448 L 1010 450 L 1010 454 L 1035 454 L 1035 450 L 1028 446 L 1028 404 Z"/>
<path d="M 979 404 L 969 410 L 967 415 L 967 424 L 972 431 L 985 437 L 990 444 L 986 449 L 979 450 L 972 445 L 971 441 L 967 441 L 966 452 L 972 455 L 988 455 L 995 452 L 999 448 L 1001 437 L 994 428 L 981 422 L 976 415 L 980 410 L 987 409 L 991 411 L 994 416 L 998 416 L 999 407 L 994 404 Z"/>
<path d="M 917 406 L 917 411 L 924 413 L 927 425 L 926 447 L 920 450 L 920 454 L 948 454 L 947 449 L 943 449 L 938 445 L 938 423 L 939 420 L 945 415 L 956 416 L 958 405 L 948 404 L 938 414 L 936 413 L 936 404 Z"/>
<path d="M 881 405 L 877 407 L 868 418 L 866 424 L 867 441 L 872 449 L 880 454 L 902 454 L 907 451 L 908 441 L 897 446 L 885 445 L 878 437 L 877 427 L 907 426 L 909 424 L 908 414 L 906 410 L 898 404 Z M 898 417 L 895 420 L 879 420 L 882 413 L 890 409 L 893 410 Z"/>
<path d="M 813 404 L 813 408 L 817 411 L 833 455 L 841 454 L 857 415 L 863 408 L 863 404 L 845 404 L 845 408 L 850 410 L 850 414 L 840 440 L 831 414 L 831 411 L 837 408 L 837 404 Z"/>
<path d="M 784 405 L 783 409 L 790 413 L 790 446 L 783 450 L 783 454 L 809 454 L 809 450 L 802 446 L 802 404 Z"/>
<path d="M 716 406 L 716 410 L 721 411 L 724 414 L 725 445 L 723 448 L 718 450 L 718 454 L 743 454 L 743 450 L 738 448 L 736 445 L 736 424 L 739 417 L 745 413 L 753 414 L 757 421 L 757 446 L 750 450 L 750 454 L 775 454 L 775 450 L 770 448 L 768 445 L 768 411 L 764 406 L 760 404 L 747 404 L 737 413 L 735 412 L 735 404 Z"/>
<path d="M 497 406 L 497 410 L 501 410 L 504 414 L 504 447 L 508 453 L 512 455 L 524 455 L 534 447 L 536 448 L 537 456 L 554 453 L 554 449 L 549 448 L 547 445 L 547 404 L 528 406 L 528 409 L 535 413 L 535 438 L 533 442 L 527 446 L 520 446 L 516 442 L 516 404 Z"/>
<path d="M 460 404 L 452 408 L 444 419 L 442 428 L 443 439 L 446 446 L 452 452 L 459 455 L 474 455 L 481 452 L 489 443 L 492 434 L 491 419 L 487 411 L 478 405 Z M 465 411 L 473 413 L 478 419 L 480 425 L 480 435 L 477 442 L 468 448 L 462 446 L 457 441 L 454 433 L 455 421 L 457 417 Z"/>
<path d="M 280 406 L 279 417 L 287 413 L 297 412 L 302 415 L 304 424 L 299 428 L 278 432 L 276 436 L 277 450 L 282 455 L 293 455 L 302 449 L 304 450 L 305 456 L 322 454 L 322 449 L 318 449 L 314 445 L 315 417 L 312 408 L 304 404 L 286 404 Z M 302 432 L 304 434 L 302 443 L 296 447 L 291 447 L 288 444 L 288 439 L 292 435 Z"/>
<path d="M 1176 390 L 1177 403 L 1175 405 L 1169 405 L 1167 412 L 1176 413 L 1176 448 L 1178 452 L 1183 455 L 1200 455 L 1204 453 L 1205 446 L 1192 447 L 1188 443 L 1188 413 L 1203 412 L 1205 404 L 1189 405 L 1187 403 L 1188 385 Z"/>
<path d="M 1050 389 L 1050 404 L 1043 405 L 1040 412 L 1048 412 L 1050 414 L 1051 451 L 1057 455 L 1073 455 L 1078 453 L 1078 446 L 1066 447 L 1063 445 L 1061 440 L 1061 414 L 1063 412 L 1077 412 L 1079 405 L 1063 405 L 1061 403 L 1062 385 Z"/>
<path d="M 643 383 L 643 388 L 650 392 L 650 434 L 654 447 L 658 451 L 668 455 L 687 455 L 697 451 L 703 445 L 706 436 L 706 392 L 713 388 L 713 383 L 691 383 L 691 388 L 695 389 L 698 393 L 698 432 L 695 441 L 690 446 L 685 448 L 675 448 L 669 445 L 664 439 L 663 435 L 663 391 L 669 388 L 669 383 Z"/>
<path d="M 208 383 L 207 387 L 214 391 L 215 435 L 214 446 L 208 449 L 207 453 L 234 454 L 234 449 L 227 445 L 227 422 L 232 420 L 235 423 L 249 454 L 269 454 L 269 449 L 265 448 L 259 442 L 247 420 L 247 418 L 252 416 L 258 409 L 259 395 L 257 390 L 252 385 L 247 383 Z M 228 390 L 238 390 L 245 396 L 246 405 L 240 413 L 227 413 Z"/>
<path d="M 1142 383 L 1140 386 L 1140 392 L 1144 396 L 1153 395 L 1155 392 L 1155 385 L 1152 382 Z"/>
<path d="M 1016 383 L 1014 385 L 1015 394 L 1018 396 L 1025 396 L 1029 391 L 1028 384 L 1025 382 Z"/>
<path d="M 791 382 L 787 387 L 788 393 L 791 396 L 800 395 L 803 391 L 802 385 L 799 382 Z"/>
<path d="M 605 378 L 586 381 L 586 385 L 593 388 L 592 405 L 576 404 L 570 407 L 562 417 L 560 424 L 561 442 L 564 448 L 573 455 L 584 455 L 593 448 L 595 456 L 613 453 L 612 449 L 605 446 Z M 580 411 L 588 412 L 592 416 L 594 423 L 593 439 L 591 443 L 585 447 L 581 447 L 575 442 L 571 429 L 572 421 L 576 414 Z"/>
<path d="M 383 380 L 382 384 L 388 386 L 390 392 L 390 451 L 400 455 L 415 455 L 424 451 L 431 443 L 434 435 L 434 419 L 432 413 L 422 404 L 410 404 L 402 411 L 401 378 Z M 414 412 L 419 416 L 422 422 L 422 436 L 419 443 L 415 447 L 407 449 L 401 443 L 401 423 L 403 418 L 408 413 Z"/>
<path d="M 371 378 L 353 380 L 353 385 L 359 388 L 358 405 L 340 405 L 332 411 L 328 418 L 326 426 L 327 441 L 331 449 L 339 455 L 350 455 L 359 449 L 361 450 L 361 456 L 379 453 L 379 449 L 375 449 L 371 445 Z M 347 411 L 354 412 L 358 416 L 360 422 L 359 439 L 352 447 L 344 445 L 338 434 L 339 420 Z"/>
</g>
</g></svg>